<mxfile host="app.diagrams.net" modified="2021-04-19T10:12:00.855Z" agent="5.0 (Macintosh; Intel Mac OS X 10_15_7) AppleWebKit/605.1.15 (KHTML, like Gecko) Version/14.0.3 Safari/605.1.15" etag="hwgrudhot9Bwcz0WW1B-" version="14.6.1" type="github">
  <diagram id="6blmnGZtMB9KXexT70W1" name="Page-1">
    <mxGraphModel dx="905" dy="616" grid="1" gridSize="10" guides="1" tooltips="1" connect="1" arrows="1" fold="1" page="1" pageScale="1" pageWidth="827" pageHeight="1169" math="0" shadow="0">
      <root>
        <mxCell id="0" />
        <mxCell id="1" parent="0" />
        <mxCell id="VMmcWqiYA94GUd33fGZK-1" value="" style="ellipse;whiteSpace=wrap;html=1;aspect=fixed;" vertex="1" parent="1">
          <mxGeometry x="300" y="210" width="150" height="150" as="geometry" />
        </mxCell>
        <mxCell id="VMmcWqiYA94GUd33fGZK-2" value="" style="ellipse;whiteSpace=wrap;html=1;aspect=fixed;" vertex="1" parent="1">
          <mxGeometry x="332.5" y="242.5" width="85" height="85" as="geometry" />
        </mxCell>
        <mxCell id="VMmcWqiYA94GUd33fGZK-3" value="" style="ellipse;whiteSpace=wrap;html=1;aspect=fixed;strokeColor=#B81B09;fillColor=#F81E0F;" vertex="1" parent="1">
          <mxGeometry x="370" y="220" width="10" height="10" as="geometry" />
        </mxCell>
        <mxCell id="VMmcWqiYA94GUd33fGZK-4" value="" style="ellipse;whiteSpace=wrap;html=1;aspect=fixed;fillColor=#ffe6cc;strokeColor=#d79b00;" vertex="1" parent="1">
          <mxGeometry x="370" y="260" width="10" height="10" as="geometry" />
        </mxCell>
        <mxCell id="VMmcWqiYA94GUd33fGZK-6" value="" style="ellipse;whiteSpace=wrap;html=1;aspect=fixed;fillColor=#ffe6cc;strokeColor=#d79b00;" vertex="1" parent="1">
          <mxGeometry x="370" y="300" width="10" height="10" as="geometry" />
        </mxCell>
        <mxCell id="VMmcWqiYA94GUd33fGZK-7" value="" style="ellipse;whiteSpace=wrap;html=1;aspect=fixed;fillColor=#ffe6cc;strokeColor=#d79b00;" vertex="1" parent="1">
          <mxGeometry x="390" y="270" width="10" height="10" as="geometry" />
        </mxCell>
        <mxCell id="VMmcWqiYA94GUd33fGZK-8" value="" style="ellipse;whiteSpace=wrap;html=1;aspect=fixed;fillColor=#ffe6cc;strokeColor=#d79b00;" vertex="1" parent="1">
          <mxGeometry x="390" y="290" width="10" height="10" as="geometry" />
        </mxCell>
        <mxCell id="VMmcWqiYA94GUd33fGZK-10" value="" style="ellipse;whiteSpace=wrap;html=1;aspect=fixed;fillColor=#ffe6cc;strokeColor=#d79b00;direction=south;" vertex="1" parent="1">
          <mxGeometry x="350" y="270" width="10" height="10" as="geometry" />
        </mxCell>
        <mxCell id="VMmcWqiYA94GUd33fGZK-11" value="" style="ellipse;whiteSpace=wrap;html=1;aspect=fixed;fillColor=#ffe6cc;strokeColor=#d79b00;" vertex="1" parent="1">
          <mxGeometry x="350" y="290" width="10" height="10" as="geometry" />
        </mxCell>
        <mxCell id="VMmcWqiYA94GUd33fGZK-12" value="" style="ellipse;whiteSpace=wrap;html=1;aspect=fixed;fillColor=#ffe6cc;strokeColor=#d79b00;direction=south;" vertex="1" parent="1">
          <mxGeometry x="370" y="280" width="10" height="10" as="geometry" />
        </mxCell>
        <mxCell id="VMmcWqiYA94GUd33fGZK-15" value="" style="ellipse;whiteSpace=wrap;html=1;aspect=fixed;fillColor=none;" vertex="1" parent="1">
          <mxGeometry x="285" y="195" width="180" height="180" as="geometry" />
        </mxCell>
        <mxCell id="VMmcWqiYA94GUd33fGZK-16" value="" style="endArrow=none;html=1;" edge="1" parent="1">
          <mxGeometry width="50" height="50" relative="1" as="geometry">
            <mxPoint x="374.5" y="360" as="sourcePoint" />
            <mxPoint x="374.5" y="445" as="targetPoint" />
          </mxGeometry>
        </mxCell>
      </root>
    </mxGraphModel>
  </diagram>
</mxfile>
